<?xml version="1.0" encoding="UTF-8"?>
<svg xmlns="http://www.w3.org/2000/svg" viewBox="0 0 1024 1024">
  <!--
    McCallister Guard — App Icon (badge)
    Monochrome silhouette for Homey App Icon contract.
    Single fill (white), transparent background; rendered on brandColor circle.
    Composition: outer shield, bust cutout, two raised-arm cutouts (Kevin pose).
    Source of truth: design/appicon.svg; assets/icon.svg must stay byte-identical.
  -->
  <path fill="#FFFFFF" fill-rule="evenodd" d="M 512 80 L 884 200 L 884 532 C 884 728 768 866 512 956 C 256 866 140 728 140 532 L 140 200 Z M 512 360 C 458 360 414 404 414 458 C 414 496 436 530 468 547 C 392 568 336 638 336 722 L 336 790 L 688 790 L 688 722 C 688 638 632 568 556 547 C 588 530 610 496 610 458 C 610 404 566 360 512 360 Z M 388 504 C 372 488 362 466 362 442 L 362 296 C 362 280 374 268 390 268 C 406 268 418 280 418 296 L 418 458 Z M 636 504 C 652 488 662 466 662 442 L 662 296 C 662 280 650 268 634 268 C 618 268 606 280 606 296 L 606 458 Z"/>
</svg>
